<?xml version="1.0" standalone="no"?>
<!DOCTYPE svg PUBLIC "-//W3C//DTD SVG 20010904//EN"
 "http://www.w3.org/TR/2001/REC-SVG-20010904/DTD/svg10.dtd">
<svg version="1.0" xmlns="http://www.w3.org/2000/svg"
 width="225.000000pt" height="225.000000pt" viewBox="0 0 225.000000 225.000000"
 preserveAspectRatio="xMidYMid meet">

<g transform="translate(0.000000,225.000000) scale(0.100000,-0.100000)"
fill="#000000" stroke="none">
<path d="M915 1901 c-22 -10 -49 -26 -60 -35 -11 -10 2 -5 29 9 26 14 51 24
53 21 3 -3 -8 -19 -25 -35 -16 -17 -27 -33 -24 -36 3 -3 0 -5 -6 -5 -6 0 -16
-9 -22 -21 -10 -17 -3 -15 42 13 69 44 134 74 178 83 51 10 28 -6 -73 -50 -49
-21 -102 -51 -119 -67 -35 -33 -59 -30 -77 9 -10 22 -10 28 3 35 20 11 21 29
2 22 -8 -3 -22 -21 -31 -40 -13 -28 -21 -34 -49 -34 -51 0 -125 -26 -201 -70
l-69 -41 -54 16 c-29 10 -55 15 -58 12 -3 -3 8 -8 25 -12 17 -4 38 -16 45 -27
13 -19 13 -25 -1 -57 -9 -20 -16 -44 -17 -53 0 -9 -4 -14 -9 -11 -4 2 -14 -1
-22 -7 -12 -10 -17 -7 -25 15 -5 14 -10 34 -10 42 0 9 -3 13 -7 10 -3 -4 2
-36 12 -72 l17 -65 -24 -38 c-46 -70 -68 -129 -80 -208 -13 -98 -1 -150 47
-198 l33 -34 -34 -33 c-19 -18 -34 -37 -34 -41 0 -5 20 -18 45 -30 29 -14 44
-27 40 -36 -5 -15 2 -24 56 -63 35 -27 148 -87 204 -110 l30 -12 -92 -43 c-91
-43 -108 -59 -78 -70 11 -4 15 -21 15 -55 0 -27 2 -49 5 -49 12 0 84 40 90 50
12 19 30 10 48 -22 17 -32 73 -78 94 -78 6 0 16 20 22 45 l11 45 44 -33 c45
-35 156 -73 183 -63 10 4 14 16 11 36 -5 35 0 36 52 10 60 -31 73 -27 132 46
l53 66 9 -36 c5 -20 15 -36 22 -36 22 0 100 97 113 139 l12 41 30 -15 c26 -14
30 -14 35 -1 11 28 -37 95 -83 117 l-43 21 42 33 43 33 11 -55 c21 -100 51
-150 108 -180 28 -14 71 -37 96 -49 52 -28 103 -30 162 -8 53 21 73 39 109
101 93 159 112 231 90 345 -16 83 -52 141 -112 184 -56 41 -60 57 -28 128 39
89 10 130 -87 123 -96 -7 -163 -88 -144 -172 5 -22 10 -43 10 -47 0 -8 -60
-29 -70 -23 -4 2 -5 41 -3 86 5 88 -3 119 -48 184 -24 35 -27 45 -20 82 9 47
6 54 -16 46 -8 -3 -32 2 -53 12 -31 14 -46 31 -74 85 l-36 68 40 36 c22 20 37
36 34 36 -7 0 -67 -41 -74 -52 -3 -4 -28 4 -54 17 -27 14 -71 28 -97 31 -27 4
-49 9 -49 11 0 3 18 23 40 45 22 22 40 44 40 49 0 24 -156 -3 -205 -35 -23
-15 -24 -15 -27 14 l-3 29 -40 -18z m245 -131 c17 -6 -1 -8 -58 -8 -45 1 -85
5 -88 9 -7 11 112 10 146 -1z m-253 -6 c-3 -3 -12 -4 -19 -1 -8 3 -5 6 6 6 11
1 17 -2 13 -5z m-169 -36 c-3 -7 -20 -16 -40 -19 -39 -6 -125 -48 -178 -88
-30 -22 -33 -23 -16 -3 28 32 106 80 167 102 64 23 72 24 67 8z m362 -29 c119
-32 244 -103 323 -182 45 -45 67 -73 63 -83 -3 -8 -10 -12 -16 -9 -6 4 -7 12
-4 18 4 7 4 9 -1 5 -4 -4 -35 18 -69 48 -67 60 -159 109 -280 149 l-80 25 -38
-25 c-22 -14 -57 -42 -79 -62 -45 -40 -61 -38 -31 4 18 26 126 133 134 133 2
0 37 -9 78 -21z m-373 -48 c28 -26 69 -57 91 -67 23 -10 42 -22 42 -26 0 -10
1 -11 -56 9 -46 15 -83 33 -131 64 -29 18 -69 -1 -162 -75 -87 -70 -117 -98
-114 -108 1 -3 -4 -11 -12 -18 -11 -9 -12 -7 -8 12 9 39 142 166 223 214 41
24 75 44 75 44 0 0 24 -22 52 -49z m343 -251 c-14 -11 -37 -23 -53 -27 -36 -8
-42 -20 -17 -35 11 -7 20 -21 20 -30 0 -36 25 -68 69 -90 61 -30 181 -31 229
-3 18 11 32 22 32 25 0 3 7 13 15 24 13 17 16 16 62 -20 26 -22 52 -45 56 -51
4 -7 14 -13 21 -13 26 0 27 -32 3 -59 -33 -35 -78 -115 -87 -154 l-8 -32 -1
37 c-1 20 4 40 9 43 6 4 20 25 32 48 16 33 17 39 4 28 -9 -7 -16 -19 -16 -27
0 -7 -14 -22 -31 -34 -20 -15 -28 -28 -24 -38 3 -9 3 -13 -1 -9 -4 3 -20 -1
-35 -10 -20 -12 -27 -23 -23 -35 4 -13 -1 -17 -22 -15 -15 1 -29 -3 -31 -9 -2
-7 5 -10 22 -7 14 3 25 1 25 -5 0 -7 -15 -9 -40 -6 -27 3 -57 -3 -97 -19 -137
-57 -294 -87 -457 -87 -63 0 -86 -3 -76 -10 16 -11 10 -13 -35 -11 -26 1 -27
-1 -10 -8 15 -7 8 -10 -31 -10 -37 -1 -55 4 -67 17 -10 10 -14 22 -10 26 8 7
-15 26 -32 26 -5 0 -4 -4 4 -9 15 -10 7 -31 -12 -30 -8 0 -8 2 1 6 10 4 10 8
1 19 -9 11 -9 18 -1 26 9 9 5 19 -15 40 -15 15 -32 28 -37 28 -25 1 -38 17
-28 36 14 28 30 82 41 147 15 82 25 97 40 59 25 -61 106 -66 217 -13 32 15 67
37 77 49 23 26 25 74 3 106 -13 21 -14 26 -2 26 19 0 29 29 15 46 -8 10 -6 13
8 13 71 0 266 20 272 28 5 9 27 20 41 22 3 0 -6 -8 -20 -19z m749 -21 c12 -27
12 -36 -3 -65 -9 -19 -16 -50 -16 -69 0 -38 -8 -41 -68 -29 -23 5 -34 14 -41
37 -29 80 10 149 87 155 22 2 30 -4 41 -29z m-699 -45 c0 -1 -16 -11 -35 -23
-36 -21 -46 -41 -20 -41 8 0 15 -6 15 -12 0 -10 3 -9 9 1 5 8 14 10 21 6 8 -5
11 -4 6 3 -11 18 14 25 87 28 46 1 72 6 78 15 6 9 7 4 3 -15 -5 -21 -4 -27 5
-22 14 9 15 -6 1 -20 -7 -7 -6 -11 5 -11 8 0 15 4 15 9 0 5 5 6 12 2 7 -5 9
-2 5 9 -4 12 -2 14 10 10 12 -5 14 -3 8 7 -5 8 -4 11 3 6 15 -9 6 -27 -28 -54
-25 -19 -41 -23 -107 -23 -111 0 -165 26 -169 81 -1 16 2 27 7 24 5 -3 14 -2
20 2 8 5 8 8 0 14 -7 3 2 7 19 7 16 0 30 -1 30 -3z m-362 -95 c-3 -8 -7 -3
-11 10 -4 17 -3 21 5 13 5 -5 8 -16 6 -23z m-193 1 c-3 -5 -12 -10 -18 -10 -7
0 -6 4 3 10 19 12 23 12 15 0z m158 -7 c3 -5 -14 -9 -37 -10 -30 -1 -36 1 -21
7 26 11 53 12 58 3z m27 -28 c0 -18 -77 -68 -90 -60 -6 4 -17 -1 -26 -9 -8 -9
-20 -16 -25 -16 -6 0 2 12 17 26 17 18 28 23 33 16 5 -8 20 -3 46 13 22 13 36
25 32 25 -5 0 -5 5 -2 10 9 14 15 12 15 -5z m-95 -17 c-9 -6 -19 -7 -22 -4 -4
3 -1 6 6 6 7 0 9 4 6 10 -4 6 1 7 11 3 15 -6 15 -7 -1 -15z m55 7 c0 -2 -10
-10 -22 -16 -21 -11 -22 -11 -9 4 13 16 31 23 31 12z m1076 -7 c3 -4 13 -8 23
-8 10 0 24 -7 31 -15 7 -8 17 -12 23 -8 5 3 7 2 4 -4 -3 -5 2 -21 11 -34 38
-53 58 -104 51 -129 -4 -14 -4 -36 -1 -49 3 -16 1 -22 -6 -17 -6 4 -16 -3 -22
-14 -15 -28 -45 -25 -125 15 -38 19 -76 35 -83 35 -7 0 -11 4 -8 8 3 5 -15 25
-39 45 l-43 36 13 45 c21 68 33 85 68 95 37 11 96 10 103 -1z m-1216 -8 c0 -5
-5 -10 -11 -10 -5 0 -7 5 -4 10 3 6 8 10 11 10 2 0 4 -4 4 -10z m822 -284 c7
4 8 2 4 -5 -10 -15 -26 -4 -25 17 1 15 2 15 6 -1 2 -9 9 -14 15 -11z m-988
-22 c3 -8 2 -12 -4 -9 -6 3 -10 10 -10 16 0 14 7 11 14 -7z m1006 -18 c0 -2
-8 -10 -17 -17 -16 -13 -17 -12 -4 4 13 16 21 21 21 13z m-105 -64 c-3 -3 -11
0 -18 7 -9 10 -8 11 6 5 10 -3 15 -9 12 -12z m-661 -57 c-4 -8 -10 -12 -15 -9
-6 3 -17 0 -25 -7 -8 -6 -17 -10 -20 -7 -2 3 10 13 28 21 40 20 39 20 32 2z"/>
<path d="M870 1238 c-19 -5 -41 -15 -48 -22 -11 -11 -8 -17 21 -35 19 -11 39
-21 44 -21 5 0 31 16 58 35 l49 34 -28 11 c-32 12 -49 12 -96 -2z m37 -14 c-3
-3 -12 -4 -19 -1 -8 3 -5 6 6 6 11 1 17 -2 13 -5z"/>
<path d="M1080 1135 c0 -21 -72 -66 -133 -81 -51 -14 -51 -14 -8 -9 60 8 137
42 155 70 14 22 12 35 -6 35 -4 0 -8 -7 -8 -15z"/>
<path d="M804 1045 c11 -8 36 -15 55 -14 35 0 34 1 -14 14 -63 18 -64 18 -41
0z"/>
<path d="M500 830 c0 -5 5 -10 10 -10 6 0 10 5 10 10 0 6 -4 10 -10 10 -5 0
-10 -4 -10 -10z"/>
<path d="M545 799 c4 -5 22 -9 42 -9 45 0 40 5 -10 13 -22 3 -35 2 -32 -4z"/>
<path d="M1100 1240 c0 -5 5 -10 11 -10 5 0 7 5 4 10 -3 6 -8 10 -11 10 -2 0
-4 -4 -4 -10z"/>
<path d="M323 1650 c0 -25 2 -35 4 -22 2 12 2 32 0 45 -2 12 -4 2 -4 -23z"/>
</g>
</svg>
